<svg width="48" height="48" viewBox="0 0 48 48" fill="none" xmlns="http://www.w3.org/2000/svg">
<g id="Frame" clip-path="url(#clip0_26461_5464)">
<g id="Group">
<path id="Vector" d="M9.62344 6.10547H4.45312C2.38209 6.10547 0.703125 7.78444 0.703125 9.85547V43.5483C0.703125 45.6193 2.38209 47.2983 4.45312 47.2983H25.7344M25.5328 6.10547H30.7031C32.7742 6.10547 34.4531 7.78444 34.4531 9.85547V13.1986" stroke="#161C24" stroke-width="1.40625" stroke-miterlimit="10" stroke-linecap="round" stroke-linejoin="round"/>
<path id="Vector_2" d="M3.98438 34.4498V43.0795C3.98438 43.597 4.40438 44.017 4.92188 44.017H20.0503M3.98438 31.1686V10.3242C3.98438 9.80578 4.40438 9.38672 4.92188 9.38672H9.65531" stroke="#161C24" stroke-width="1.40625" stroke-miterlimit="10" stroke-linecap="round" stroke-linejoin="round"/>
<path id="Vector_3" d="M19.2188 10.8478H23.6719C24.7078 10.8478 25.5469 10.0087 25.5469 8.97281V6.32812C25.5469 5.29219 24.7078 4.45312 23.6719 4.45312H22.0941C21.6862 4.45312 21.3394 4.16156 21.2644 3.76125C20.94 2.02125 19.4128 0.703125 17.5781 0.703125C15.7434 0.703125 14.2162 2.02125 13.8919 3.76125C13.8169 4.16156 13.47 4.45312 13.0622 4.45312H11.4844C10.4484 4.45312 9.60938 5.29219 9.60938 6.32812V8.97281C9.60938 10.0087 10.4484 10.8478 11.4844 10.8478H15.9375M12.6203 8.0355H22.4641" stroke="#161C24" stroke-width="1.40625" stroke-miterlimit="10" stroke-linecap="round" stroke-linejoin="round"/>
<path id="Vector_4" d="M25.5009 9.38672H30.2344C30.7519 9.38672 31.1719 9.80578 31.1719 10.3242V13.4873M7.73438 18.738L8.80584 19.8095L11.4844 17.1308M25.0463 16.8295H15.2409M24.1388 20.1108H15.2409M7.73438 25.7692L8.80584 26.8407L11.4844 24.1621M22.0828 23.8608H15.2409M22.7128 27.142H15.2409M7.73438 32.8005L8.80584 33.872L11.4844 31.1933M21.7238 30.892H15.2409M20.2772 34.1733H15.2409M28.7572 41.7213C28.7572 41.0086 28.1794 40.4308 27.4667 40.4308C26.754 40.4308 26.1762 41.0086 26.1762 41.7213M37.7116 41.7213C37.7116 41.0086 38.2894 40.4308 39.0021 40.4308C39.7148 40.4308 40.2925 41.0086 40.2925 41.7213M31.8655 43.2296C32.1983 43.6116 32.688 43.8532 33.2344 43.8532C33.7808 43.8532 34.2704 43.6116 34.6032 43.2296" stroke="#161C24" stroke-width="1.40625" stroke-miterlimit="10" stroke-linecap="round" stroke-linejoin="round"/>
<path id="Vector_5" d="M22.8347 29.6444C22.9191 29.3284 23.0409 29.0228 23.1966 28.7359C23.4 28.3619 23.3494 27.9053 23.0644 27.5884C22.3931 26.8413 21.9844 25.8531 21.9844 24.7694C21.9844 23.3453 22.6903 22.0862 23.7703 21.3222C24.0938 21.0934 24.2475 20.6922 24.1716 20.3031C23.9372 19.0966 24.2297 17.7991 25.0809 16.7847C25.9491 15.7497 27.2081 15.2369 28.4606 15.28C28.7709 15.2903 29.0662 15.1525 29.2669 14.9172C31.3912 12.4234 35.0775 12.4234 37.2019 14.9172C37.4025 15.1525 37.6978 15.2903 38.0081 15.28C39.2606 15.2369 40.5197 15.7497 41.3878 16.7847C42.2391 17.7991 42.5316 19.0966 42.2972 20.3031C42.2213 20.6922 42.375 21.0934 42.6984 21.3222C43.7784 22.0862 44.4844 23.3453 44.4844 24.7694C44.4844 25.8428 44.0841 26.8216 43.4241 27.5659C43.3978 27.5959 43.3725 27.6269 43.35 27.6597" stroke="#161C24" stroke-width="1.40625" stroke-miterlimit="10" stroke-linecap="round" stroke-linejoin="round"/>
<path id="Vector_6" d="M36.75 18.7602C35.3002 19.8227 34.1287 21.1783 33.2344 22.8264C32.34 21.1783 31.1686 19.8227 29.7188 18.7602M38.1562 22.3923C36.0427 23.5461 34.4016 25.1992 33.2344 27.3507C32.0672 25.1992 30.4261 23.5462 28.3125 22.3923M33.2347 17.3789V28.837M33.9631 29.3836C35.2522 27.2695 37.1778 25.8145 39.3284 25.8145C43.2115 25.8145 46.3597 30.5583 46.3597 35.3555C46.3597 35.9236 46.3156 36.4664 46.2312 36.983" stroke="#161C24" stroke-width="1.40625" stroke-miterlimit="10" stroke-linecap="round" stroke-linejoin="round"/>
<path id="Vector_7" d="M36.5869 33.292C37.2984 32.6105 38.265 32.1914 39.3281 32.1914C41.5181 32.1914 43.2937 33.967 43.2937 36.157C43.2937 36.4411 43.2637 36.7186 43.2066 36.9858M30.3975 36.9858H46.3594C46.8769 36.9858 47.2969 37.4058 47.2969 37.9233V40.7358C47.2969 44.3602 44.3587 47.2983 40.7344 47.2983H25.7344C22.11 47.2983 19.1719 44.3602 19.1719 40.7358V37.9233C19.1719 37.4058 19.5919 36.9858 20.1094 36.9858H27.1162" stroke="#161C24" stroke-width="1.40625" stroke-miterlimit="10" stroke-linecap="round" stroke-linejoin="round"/>
<path id="Vector_8" d="M36.9094 36.9852C36.9591 36.6158 36.9844 36.2389 36.9844 35.8555C36.9844 31.1952 33.2072 27.418 28.5469 27.418C23.8866 27.418 20.1094 31.1952 20.1094 35.8555C20.1094 36.2389 20.1347 36.6158 20.1844 36.9852" stroke="#161C24" stroke-width="1.40625" stroke-miterlimit="10" stroke-linecap="round" stroke-linejoin="round"/>
<path id="Vector_9" d="M34.0584 36.9852C34.1339 36.6133 34.1719 36.2349 34.1719 35.8555C34.1719 32.7486 31.6537 30.2305 28.5469 30.2305C25.44 30.2305 22.9219 32.7486 22.9219 35.8555C22.9219 36.2427 22.9613 36.6205 23.0353 36.9852M28.5 33.3222V33.0425M30.6294 34.2841L30.8438 34.1043M26.4643 34.2841L26.25 34.1043" stroke="#161C24" stroke-width="1.40625" stroke-miterlimit="10" stroke-linecap="round" stroke-linejoin="round"/>
</g>
</g>
<defs>
<clipPath id="clip0_26461_5464">
<rect width="48" height="48" fill="white"/>
</clipPath>
</defs>
</svg>
