<svg width="48" height="48" viewBox="0 0 48 48" fill="none" xmlns="http://www.w3.org/2000/svg">
<g id="Frame" clip-path="url(#clip0_26461_5503)">
<g id="Group">
<path id="Vector" d="M16.0765 21.0355C16.5094 20.6312 16.9089 20.1889 17.3084 19.7513L26.2121 28.5076C26.634 28.9238 27.2033 29.1563 27.7959 29.1544C28.152 29.1543 28.5034 29.073 28.8233 28.9166L30.0646 30.1342C30.2237 30.2893 30.437 30.3762 30.6592 30.3762C30.8813 30.3762 31.0947 30.2893 31.2537 30.1342L31.3631 30.0248C31.4409 29.949 31.5027 29.8584 31.545 29.7584C31.5872 29.6583 31.6089 29.5508 31.6089 29.4422C31.6089 29.3336 31.5872 29.226 31.545 29.126C31.5027 29.0259 31.4409 28.9353 31.3631 28.8595L30.1217 27.6372C30.3367 27.2212 30.4125 26.7471 30.338 26.2848C30.2635 25.8225 30.0427 25.3963 29.7079 25.0688L20.79 16.2935C21.2656 15.8179 21.7412 15.3756 22.2168 14.957L31.073 23.6705C31.5169 24.1039 31.8576 24.6315 32.07 25.2144C32.2824 25.7973 32.3611 26.4205 32.3001 27.0379L32.7281 27.4612C32.9917 27.7194 33.2012 28.0276 33.3441 28.3677C33.4871 28.7079 33.5608 29.0732 33.5608 29.4422C33.5608 29.8112 33.4871 30.1764 33.3441 30.5166C33.2012 30.8567 32.9917 31.165 32.7281 31.4231L32.6187 31.5325C32.0926 32.0473 31.3858 32.3356 30.6497 32.3356C29.9136 32.3356 29.2067 32.0473 28.6806 31.5325L28.2335 31.0902C28.0851 31.1077 27.9358 31.1157 27.7864 31.114C26.6792 31.1189 25.6153 30.6845 24.828 29.9059L15.9434 21.1497L16.0765 21.0355Z" fill="black"/>
<path id="Vector_2" d="M28.5191 36.6985C28.5191 34.62 30.8734 30.7817 31.1445 30.3489C31.2316 30.2056 31.3537 30.0867 31.4993 30.0035C31.6448 29.9203 31.8092 29.8755 31.9769 29.8733C32.1447 29.8746 32.3094 29.919 32.4552 30.0023C32.6009 30.0856 32.7229 30.2049 32.8092 30.3489C33.0756 30.7817 35.4347 34.6295 35.4347 36.6937C35.4593 37.1631 35.3881 37.6325 35.2255 38.0734C35.0628 38.5144 34.8121 38.9176 34.4886 39.2585C34.1651 39.5994 33.7756 39.8709 33.3437 40.0565C32.9119 40.242 32.4469 40.3377 31.9769 40.3377C31.5069 40.3377 31.0418 40.242 30.61 40.0565C30.1782 39.8709 29.7887 39.5994 29.4652 39.2585C29.1417 38.9176 28.8909 38.5144 28.7283 38.0734C28.5656 37.6325 28.4945 37.1631 28.5191 36.6937V36.6985ZM30.4787 36.6985C30.449 36.9126 30.4657 37.1305 30.5274 37.3377C30.5891 37.5448 30.6945 37.7363 30.8365 37.8992C30.9784 38.0622 31.1537 38.1929 31.3504 38.2824C31.5471 38.3719 31.7608 38.4182 31.9769 38.4182C32.193 38.4182 32.4066 38.3719 32.6034 38.2824C32.8001 38.1929 32.9753 38.0622 33.1173 37.8992C33.2593 37.7363 33.3647 37.5448 33.4264 37.3377C33.4881 37.1305 33.5047 36.9126 33.4751 36.6985C33.4751 35.8804 32.7284 34.23 31.9721 32.8316C31.2111 34.2252 30.4692 35.8947 30.4692 36.6985H30.4787ZM16.8092 11.9803L18.8877 14.0255L19.3633 13.5831C19.5573 13.3924 19.819 13.2863 20.091 13.2882C20.389 13.2918 20.6739 13.4112 20.8853 13.6212L21.0851 13.8162C21.1881 13.9107 21.2711 14.0251 21.329 14.1524C21.3869 14.2797 21.4186 14.4174 21.4221 14.5572C21.4257 14.697 21.401 14.8361 21.3497 14.9662C21.2983 15.0963 21.2213 15.2147 21.1231 15.3144L16.3193 20.0421C16.1248 20.232 15.8635 20.3379 15.5916 20.337C15.4431 20.3369 15.296 20.3074 15.1589 20.2503C15.0217 20.1931 14.8973 20.1095 14.7926 20.0041L14.5928 19.809C14.4909 19.7138 14.409 19.5992 14.3518 19.4719C14.2947 19.3447 14.2634 19.2074 14.2599 19.0679C14.2563 18.9285 14.2806 18.7897 14.3312 18.6597C14.3818 18.5297 14.4578 18.4111 14.5548 18.3108L15.0066 17.8637L12.9281 15.8186C12.6941 15.5896 12.5082 15.3162 12.3813 15.0144C12.2544 14.7126 12.189 14.3885 12.189 14.0611C12.189 13.7337 12.2544 13.4097 12.3813 13.1079C12.5082 12.8061 12.6941 12.5327 12.9281 12.3037L13.2563 11.9803C13.7336 11.5134 14.3747 11.252 15.0423 11.252C15.7099 11.252 16.351 11.5134 16.8282 11.9803H16.8092ZM15.0209 9.293C13.8393 9.28891 12.704 9.75225 11.8627 10.5819L11.5346 10.9054C11.1143 11.316 10.7804 11.8065 10.5524 12.348C10.3245 12.8896 10.207 13.4712 10.207 14.0588C10.207 14.6463 10.3245 15.2279 10.5524 15.7695C10.7804 16.311 11.1143 16.8015 11.5346 17.2121L12.4287 18.092C12.3276 18.3989 12.2778 18.7203 12.2813 19.0433C12.2825 19.4498 12.3643 19.852 12.5218 20.2267C12.6794 20.6014 12.9096 20.9412 13.1992 21.2264L13.399 21.4214C13.977 21.9949 14.7584 22.3163 15.5726 22.3156C16.3588 22.3185 17.1144 22.0108 17.6749 21.4595L22.4787 16.7318C22.7601 16.457 22.9835 16.1285 23.1354 15.7657C23.2874 15.4029 23.3649 15.0133 23.3633 14.62C23.3612 14.2132 23.2786 13.8109 23.1202 13.4362C22.9618 13.0615 22.7309 12.7219 22.4406 12.4369L22.2409 12.2419C21.6643 11.6691 20.8847 11.3477 20.072 11.3477C19.7485 11.3485 19.4273 11.4015 19.1208 11.5046L18.2028 10.601C17.36 9.77055 16.223 9.3072 15.0399 9.31202L15.0209 9.293ZM21.2563 25.312H30.2932C30.4081 25.3207 30.5236 25.3056 30.6324 25.2675C30.7411 25.2295 30.8409 25.1695 30.9254 25.0911C31.0099 25.0127 31.0773 24.9178 31.1234 24.8122C31.1695 24.7065 31.1933 24.5925 31.1933 24.4773C31.1933 24.3621 31.1695 24.2481 31.1234 24.1424C31.0773 24.0368 31.0099 23.9419 30.9254 23.8635C30.8409 23.7851 30.7411 23.7251 30.6324 23.6871C30.5236 23.649 30.4081 23.6339 30.2932 23.6426H21.2563C21.1414 23.6339 21.0259 23.649 20.9171 23.6871C20.8083 23.7251 20.7086 23.7851 20.6241 23.8635C20.5396 23.9419 20.4722 24.0368 20.4261 24.1424C20.38 24.2481 20.3562 24.3621 20.3562 24.4773C20.3562 24.5925 20.38 24.7065 20.4261 24.8122C20.4722 24.9178 20.5396 25.0127 20.6241 25.0911C20.7086 25.1695 20.8083 25.2295 20.9171 25.2675C21.0259 25.3056 21.1414 25.3207 21.2563 25.312Z" fill="black"/>
<path id="Vector_3" d="M-0.0185547 24.0038C-0.0185547 10.9717 10.7496 0.365234 23.9814 0.365234C37.2133 0.365234 48.0195 10.9717 48.0195 24.0038C48.0195 37.0359 37.2514 47.6423 24.0195 47.6423C10.7876 47.6423 -0.0185547 37.0359 -0.0185547 24.0038ZM2.6925 24.0038C2.6925 35.5424 12.243 44.9312 23.9814 44.9312C35.7199 44.9312 45.2704 35.5424 45.2704 24.0038C45.2704 12.4651 35.7199 3.07629 23.9814 3.07629C12.243 3.07629 2.71153 12.4651 2.71153 24.0038H2.6925Z" fill="black"/>
<path id="Vector_4" d="M27.7051 21.7166L40.8133 8.60842L39.4197 7.21484L26.4637 20.1708C26.887 20.675 27.3246 21.1744 27.7051 21.7166ZM21.3365 25.3123L7.19141 39.4574L8.61828 40.8034L22.5588 26.8581C22.1355 26.3825 21.7455 25.8308 21.3365 25.3123Z" fill="black"/>
</g>
</g>
<defs>
<clipPath id="clip0_26461_5503">
<rect width="48" height="48" fill="white"/>
</clipPath>
</defs>
</svg>
