<svg width="48" height="48" viewBox="0 0 48 48" fill="none" xmlns="http://www.w3.org/2000/svg">
<g id="Frame">
<g id="Group">
<g id="Group_2">
<path id="Vector" d="M28.5073 23.0224L28.5073 23.0224C28.5492 22.7604 28.7956 22.5815 29.058 22.6237L29.0342 22.7718L29.0578 22.6237C29.3202 22.6655 29.4984 22.9123 29.4566 23.1744L29.4566 23.1744L29.3929 23.5724C30.9685 22.5269 32.9704 22.2822 34.7907 22.9772C37.8502 24.1454 39.3888 27.5846 38.2207 30.6441L38.2207 30.6441C38.1474 30.836 37.9648 30.9534 37.7715 30.9534H37.7714C37.7128 30.9533 37.6547 30.9426 37.6 30.9216M28.5073 23.0224L37.6537 30.7815M28.5073 23.0224L28.2417 24.6818M28.5073 23.0224L28.2417 24.6818M37.6 30.9216L37.6537 30.7815M37.6 30.9216C37.6001 30.9216 37.6001 30.9217 37.6002 30.9217L37.6537 30.7815M37.6 30.9216C37.3519 30.8268 37.2278 30.549 37.3225 30.301M37.6537 30.7815C37.4829 30.7164 37.3974 30.5252 37.4626 30.3546M37.3225 30.301L37.4626 30.3546M37.3225 30.301C38.3016 27.7371 37.0119 24.8543 34.4479 23.8754L34.4479 23.8754C32.9241 23.2936 31.2494 23.4967 29.9299 24.3694M37.3225 30.301C37.3225 30.301 37.3225 30.301 37.3225 30.301L37.4626 30.3546M37.4626 30.3546L29.9299 24.3694M29.9299 24.3694L29.6904 24.3521C31.0722 23.3627 32.8709 23.1127 34.5014 23.7353L29.9299 24.3694ZM29.9299 24.3694C29.8638 24.4131 29.7985 24.4586 29.7342 24.5057L30.4216 24.5552M29.9299 24.3694L30.4324 24.4055M30.4324 24.4055L30.4216 24.5552M30.4324 24.4055L30.4324 24.4055L30.4216 24.5552M30.4324 24.4055C30.6972 24.4246 30.8963 24.6549 30.8773 24.9196C30.8591 25.1726 30.6482 25.3657 30.3983 25.3658M30.4216 24.5552C30.6038 24.5683 30.7408 24.7267 30.7277 24.9088C30.7152 25.0829 30.57 25.2158 30.3982 25.2158M30.3982 25.2158L30.3983 25.3658M30.3982 25.2158V25.3658C30.3982 25.3658 30.3983 25.3658 30.3983 25.3658M30.3982 25.2158L30.3985 25.3658C30.3985 25.3658 30.3984 25.3658 30.3983 25.3658M28.2417 24.6818L28.2417 24.6818M28.2417 24.6818L28.2417 24.6818M28.2417 24.6818C28.2391 24.6979 28.2382 24.72 28.2379 24.7364C28.2374 24.7583 28.2377 24.7869 28.24 24.8179C28.2422 24.8486 28.2467 24.8847 28.2555 24.9206C28.2636 24.9539 28.2778 24.9966 28.3048 25.0352C28.3705 25.1345 28.4687 25.1847 28.5378 25.2099C28.6056 25.2347 28.6637 25.242 28.6809 25.2433L28.6809 25.2433L30.3631 25.3645C30.3631 25.3645 30.3631 25.3645 30.3631 25.3645L30.3632 25.3645L28.2417 24.6818ZM29.3603 23.7761C29.3024 23.8166 29.2451 23.8582 29.1884 23.901L29.2222 23.69L29.3603 23.7761Z" fill="#161C24" stroke="black" stroke-width="0.3"/>
<path id="Vector_2" d="M5.39881 42.03L5.39912 42.0299C5.65976 41.984 5.83441 41.7363 5.7895 41.4754C5.78359 41.4353 5.77057 41.2402 5.7605 40.4898C5.75043 39.7392 5.7432 38.4417 5.74679 36.2049C5.74984 34.311 6.88629 32.6381 8.64258 31.9414L8.58728 31.802L8.64259 31.9414L11.1731 30.9375C12.2821 30.4976 13.2904 29.7965 14.0901 28.9096L13.9786 28.8092L14.0901 28.9096C14.8878 28.0247 15.4812 26.9513 15.8064 25.8046L15.8064 25.8046C15.8661 25.5939 15.828 25.3693 15.7025 25.1892L15.7025 25.1892C15.5771 25.0091 15.3798 24.8953 15.1615 24.8782L15.1615 24.8782C13.4535 24.7444 12.1138 23.2906 12.1138 21.5685V14.643C12.1138 14.3775 11.8985 14.1622 11.633 14.1622C11.3675 14.1622 11.1523 14.3775 11.1523 14.643V21.5685C11.1523 22.6527 11.5575 23.6874 12.2933 24.4815L12.4033 24.3796L12.2933 24.4815C12.9597 25.2007 13.8418 25.6641 14.8013 25.8046C14.1712 27.7248 12.6991 29.2979 10.8187 30.0439L8.28824 31.0478C7.25254 31.4587 6.37339 32.1638 5.74663 33.0865C5.11979 34.0092 4.78742 35.0872 4.78553 36.2034C4.78147 38.7307 4.79081 40.0601 4.80334 40.7701C4.8158 41.4764 4.83135 41.5772 4.84229 41.6394L4.8423 41.6395C4.88339 41.8728 5.08633 42.0373 5.31554 42.0373L5.31613 42.0373C5.34387 42.0372 5.37153 42.0347 5.39881 42.03ZM40.98 14.1695C40.2714 14.1695 39.6947 13.5928 39.6947 12.8841V12.7887H40.7681C41.1549 12.7887 41.4694 12.4743 41.4694 12.0874V8.09435C41.4694 6.73504 40.3638 5.6293 39.0043 5.6293H26.3393C24.9799 5.6293 23.8743 6.73505 23.8743 8.09435V12.0874C23.8743 12.4741 24.1886 12.7886 24.5754 12.7886H25.6488V12.8841C25.6488 13.5927 25.0721 14.1695 24.3635 14.1695C23.1245 14.1695 22.1167 15.1773 22.1167 16.4163V17.3513C22.1167 17.6168 22.3319 17.832 22.5975 17.832C22.8628 17.832 23.0782 17.6168 23.0782 17.3513V16.4163C23.0782 15.7077 23.6549 15.1309 24.3637 15.1309C25.6027 15.1309 26.6105 14.1231 26.6105 12.8841V12.7886H38.7334V12.8841C38.7334 14.1231 39.7412 15.1309 40.9802 15.1309C41.6889 15.1309 42.2657 15.7076 42.2657 16.4162V18.1788H25.3782C25.1127 18.1788 24.8974 18.394 24.8974 18.6595C24.8974 18.9251 25.1126 19.1403 25.3782 19.1403H42.2657V37.6938H23.0782V35.2083C23.0782 34.9428 22.8629 34.7275 22.5974 34.7275C22.3319 34.7275 22.1166 34.9428 22.1166 35.2083V39.3672C22.1166 40.9342 23.3913 42.2089 24.9583 42.2089H40.3853C41.9524 42.2089 43.227 40.9343 43.227 39.3672V16.4163C43.2269 15.1773 42.2191 14.1695 40.98 14.1695ZM37.947 11.8273V9.89734C37.947 9.63183 37.7317 9.41659 37.4662 9.41659C37.2007 9.41659 36.9854 9.63183 36.9854 9.89734V11.8273H33.1524V8.34705C33.1524 8.08154 32.9371 7.8663 32.6716 7.8663C32.4061 7.8663 32.1908 8.08153 32.1908 8.34705V11.8273H28.3578V9.89734C28.3578 9.63183 28.1425 9.41659 27.877 9.41659C27.6115 9.41659 27.3962 9.63182 27.3962 9.89734V11.8273H24.8354V8.09447C24.8354 7.26557 25.5101 6.59089 26.3391 6.59089H39.0042C39.8332 6.59089 40.5078 7.26556 40.5078 8.09447V11.8273H37.947ZM42.2655 39.3673C42.2655 40.404 41.422 41.2475 40.3853 41.2475H24.9583C23.9216 41.2475 23.078 40.4039 23.078 39.3673V38.6552H42.2655L42.2655 39.3673Z" fill="#161C24" stroke="black" stroke-width="0.3"/>
<path id="Vector_3" d="M16.4875 22.6092L16.4875 22.6092C17.4124 20.4003 19.2373 19.0502 21.235 19.0502C24.148 19.0502 26.566 21.9503 26.566 25.5795C26.566 26.9486 26.189 28.3165 25.4746 29.5351C23.8637 32.2827 21.4319 34.1629 18.2392 35.1245C15.6825 35.8945 13.4297 35.8015 12.7914 35.7037C12.1776 35.6095 11.4739 35.3288 10.6985 34.8604C10.1539 34.5312 9.49871 34.4648 8.90189 34.679C8.30857 34.8917 7.84773 35.3561 7.63799 35.952C7.25902 37.0287 7.0668 38.1537 7.0668 39.2954V41.5701C7.0668 41.8357 7.28203 42.0509 7.54755 42.0509C7.81307 42.0509 8.02831 41.8357 8.02831 41.5701V39.2954C8.02831 38.2625 8.20216 37.2451 8.54497 36.2712C8.65849 35.9487 8.90683 35.6985 9.22654 35.5839C9.54951 35.468 9.90453 35.5038 10.2013 35.6832L10.2013 35.6832C11.0724 36.2096 11.895 36.5389 12.6456 36.6539C13.5381 36.7908 15.8944 36.8348 18.5165 36.0451C20.042 35.5856 21.4347 34.9106 22.6548 34.0378C24.134 32.98 25.3618 31.6283 26.3039 30.0212C27.1038 28.6568 27.5274 27.1209 27.5274 25.5794C27.5274 23.5982 26.8855 21.7283 25.7145 20.3157L25.599 20.4115L25.7145 20.3157C24.5276 18.8842 22.937 18.0886 21.2349 18.0886C20.0315 18.0886 18.8634 18.4936 17.8573 19.2559L17.9479 19.3754L17.8573 19.2559C16.9262 19.9613 16.1695 20.9429 15.66 22.0991H15.5072C14.8901 22.0991 14.3868 21.5949 14.3868 20.9744V14.6413C14.3868 14.3758 14.1715 14.1605 13.906 14.1605C13.6405 14.1605 13.4253 14.3758 13.4253 14.6413V20.9744V20.9744C13.4254 22.1247 14.359 23.0609 15.5073 23.0609H15.8123C16.1081 23.0609 16.3729 22.8827 16.4875 22.6092Z" fill="#161C24" stroke="black" stroke-width="0.3"/>
<path id="Vector_4" d="M23.8312 22.9979C24.0504 22.8484 24.1071 22.5494 23.9575 22.33C23.2625 21.3111 22.2732 20.7094 21.2345 20.7094C20.969 20.7094 20.7537 20.9246 20.7537 21.1901C20.7537 21.4556 20.969 21.6708 21.2345 21.6708L21.2345 21.6708C21.9263 21.6707 22.6332 22.0946 23.1631 22.8716L23.1632 22.8717C23.2563 23.0081 23.4073 23.0816 23.5606 23.0816H23.5606C23.6572 23.0815 23.7515 23.0524 23.8312 22.9979ZM23.8312 22.9979L23.7467 22.874M23.8312 22.9979C23.8312 22.9979 23.8313 22.9979 23.8313 22.9979L23.7467 22.874M23.7467 22.874C23.6918 22.9115 23.627 22.9315 23.5606 22.9316C23.4549 22.9316 23.3511 22.8809 23.287 22.7871C22.7382 21.9823 21.99 21.5207 21.2345 21.5208C21.0518 21.5208 20.9037 21.3728 20.9037 21.1901C20.9037 21.0074 21.0518 20.8594 21.2345 20.8594C22.2122 20.8594 23.1595 21.4262 23.8336 22.4145C23.9365 22.5654 23.8975 22.7711 23.7467 22.874ZM24.0281 24.6849C23.9978 24.5048 24.1193 24.3343 24.2994 24.304L24.0281 24.6849ZM24.0281 24.6849C24.0773 24.9781 24.1023 25.2791 24.1023 25.5794C24.1023 26.7547 23.6935 27.6982 23.3504 28.283L24.0281 24.6849ZM24.8283 24.5505L24.8283 24.5505C24.8851 24.8881 24.9138 25.2343 24.9138 25.5794C24.9138 26.9378 24.4436 28.0232 24.0505 28.6933C22.8061 30.816 20.9728 32.3479 18.6069 33.245C16.6471 33.9881 14.7955 34.0986 13.8659 34.0986C13.6004 34.0986 13.3852 33.8834 13.3852 33.6179C13.3852 33.3525 13.6002 33.1371 13.8659 33.1373M24.8283 24.5505L13.8659 33.1373M24.8283 24.5505C24.7842 24.2887 24.5367 24.1124 24.2748 24.1561L24.2746 24.1561C24.0128 24.2 23.8362 24.4479 23.8801 24.7097L23.8801 24.7097C23.928 24.9947 23.9523 25.2874 23.9523 25.5794C23.9523 26.7198 23.5554 27.637 23.2211 28.2071L23.221 28.2071C20.6156 32.6512 15.8227 33.1373 13.8659 33.1373L13.8658 33.2873V33.1373C13.8658 33.1373 13.8658 33.1373 13.8659 33.1373M24.8283 24.5505L13.8659 33.1373M31.9529 32.7671C32.5015 32.7309 32.9792 32.416 33.2288 31.9261L35.8498 26.782L35.7162 26.7139L35.8498 26.782C36.237 26.022 35.9339 25.0893 35.174 24.702L35.1739 24.702C34.4141 24.3151 33.4811 24.6181 33.0939 25.3781L31.652 28.208L31.439 27.8986L31.439 27.8986C31.2049 27.5587 30.8518 27.3296 30.4459 27.2547C30.0398 27.1796 29.6283 27.2675 29.2883 27.5016C28.5858 27.9851 28.4079 28.9498 28.8914 29.6523L28.8914 29.6523L30.5772 32.101C30.8689 32.5248 31.3388 32.7706 31.8479 32.7706C31.8824 32.7706 31.9174 32.7695 31.9529 32.7671ZM31.9529 32.7671C31.9528 32.7671 31.9528 32.7671 31.9527 32.7671L31.9428 32.6174L31.9531 32.7671C31.953 32.7671 31.953 32.7671 31.9529 32.7671ZM31.8891 31.8079L31.8892 31.8078C32.0974 31.7942 32.2772 31.6757 32.372 31.4897L34.993 26.3456L35.1267 26.4137L34.993 26.3456C35.1394 26.0584 35.0247 25.7052 34.7372 25.5588L34.8053 25.4252L34.7372 25.5588C34.4497 25.4124 34.0968 25.5271 33.9502 25.8145C33.9502 25.8145 33.9502 25.8146 33.9502 25.8146L32.2772 29.098C32.1711 29.3064 31.9672 29.4407 31.734 29.4561M31.8891 31.8079L31.272 29.0874L31.1484 29.1725C31.2809 29.365 31.5006 29.4717 31.734 29.4561M31.8891 31.8079C31.6805 31.8216 31.4871 31.7277 31.3689 31.5559L31.3689 31.5558L29.6831 29.107L29.6831 29.107C29.5003 28.8415 29.5677 28.4763 29.8332 28.2935C29.9622 28.2047 30.1171 28.1717 30.2712 28.2C30.4252 28.2285 30.5581 28.3147 30.6468 28.4436L30.6468 28.4436L31.1484 29.1725L31.8891 31.8079ZM31.734 29.4561L31.7241 29.3064L31.7342 29.4561C31.7341 29.4561 31.734 29.4561 31.734 29.4561Z" fill="#161C24" stroke="black" stroke-width="0.3"/>
<path id="Vector_5" d="M27.0486 30.437L27.0486 30.437C26.963 30.1857 27.0974 29.9126 27.3486 29.827L27.0486 30.437ZM27.0486 30.437C27.6203 32.1159 28.8979 33.4417 30.5532 34.0737C31.2462 34.3383 31.9655 34.4667 32.6778 34.4667C33.8362 34.4667 34.9752 34.1264 35.9508 33.4791L35.8872 33.8764C35.8452 34.1386 36.0238 34.385 36.2859 34.427L36.2862 34.4271M27.0486 30.437L36.2862 34.4271M36.2862 34.4271C36.3112 34.431 36.3366 34.4331 36.3623 34.4331C36.5944 34.4331 36.7988 34.265 36.8366 34.0282L37.1022 32.3689L37.1034 32.3613M36.2862 34.4271L37.1034 32.3613M37.1034 32.3613L37.1039 32.3537M37.1034 32.3613L37.1039 32.3537M37.1039 32.3537C37.1039 32.3537 37.1039 32.3537 37.1039 32.3537C37.1039 32.3536 37.1039 32.3529 37.1041 32.3512L37.1047 32.3435C37.1052 32.3371 37.1059 32.3285 37.1064 32.3185C37.1075 32.2986 37.108 32.2728 37.106 32.2433C37.1021 32.1846 37.0878 32.1085 37.0456 32.0314L37.0451 32.0304M37.1039 32.3537L37.0451 32.0304M37.0451 32.0304C36.9836 31.9202 36.8797 31.8666 36.8088 31.8408C36.737 31.8146 36.6757 31.8082 36.663 31.8073L36.6625 31.8073L34.9807 31.6861L34.9805 31.6861M37.0451 32.0304L34.9805 31.6861M34.9805 31.6861C34.7154 31.6672 34.4857 31.8662 34.4666 32.131L34.4666 32.131M34.9805 31.6861L34.4666 32.131M34.4666 32.131C34.4476 32.3958 34.6468 32.6258 34.9115 32.6451L34.9116 32.6451M34.4666 32.131L34.9116 32.6451M34.9116 32.6451L35.414 32.6812C34.0946 33.5538 32.4198 33.757 30.896 33.1752L30.896 33.1752M34.9116 32.6451L30.896 33.1752M30.896 33.1752C29.5085 32.6455 28.4379 31.5345 27.9585 30.127L30.896 33.1752ZM27.9585 30.1269C27.8732 29.8758 27.6001 29.7413 27.3487 29.827L27.9585 30.1269Z" fill="#161C24" stroke="black" stroke-width="0.3"/>
</g>
</g>
</g>
</svg>
