<svg width="48" height="48" viewBox="0 0 48 48" fill="none" xmlns="http://www.w3.org/2000/svg">
<g id="Frame" clip-path="url(#clip0_26461_5479)">
<g id="Group">
<path id="Vector" d="M46.3299 28.9255H27.1746C26.8721 27.2827 26.2411 26.1779 25.2934 25.6417C24.6541 25.2799 24.0126 25.2622 23.5539 25.3243C23.3388 24.5354 22.7643 23.213 21.2625 22.5089C19.9351 21.8866 18.8964 22.203 18.2563 22.6664C17.4955 21.6512 15.9978 20.4622 13.883 20.7777C12.537 20.9785 11.5849 21.8219 11.3361 23.034C11.0447 24.454 11.7416 26.0203 13.0964 27.1009C12.7535 27.5479 12.4796 28.1815 12.5926 28.9255H1.66904C1.05076 28.9255 0.546105 29.4278 0.544042 30.0452C0.53748 31.9845 0.855386 36.8778 3.94042 40.4223C6.06076 42.8584 9.05514 44.145 12.8452 44.2527C13.1154 46.1563 14.7551 47.6253 16.7323 47.6253H31.2669C33.2439 47.6253 34.8837 46.1563 35.1539 44.2527C38.9439 44.145 41.9383 42.8584 44.0587 40.4223C47.1437 36.8778 47.4616 31.9845 47.455 30.0452C47.453 29.4278 46.9482 28.9255 46.33 28.9255H46.3299ZM14.2915 27.4842C14.3673 27.4305 14.4285 27.3588 14.4698 27.2756C14.5111 27.1924 14.5311 27.1003 14.5281 27.0074C14.5251 26.9146 14.4992 26.8239 14.4526 26.7436C14.4061 26.6632 14.3403 26.5956 14.2613 26.5468C12.738 25.607 12.2484 24.1842 12.4381 23.2601C12.5923 22.5087 13.1644 22.0221 14.0489 21.8903C16.468 21.5285 17.6027 23.7152 17.649 23.8066C17.7383 23.9864 17.915 24.1077 18.1153 24.1204C18.2133 24.1272 18.3114 24.108 18.3996 24.0646C18.4877 24.0213 18.5629 23.9554 18.6174 23.8737C18.6909 23.7686 19.376 22.867 20.785 23.5275C22.3701 24.2705 22.5502 25.9867 22.5568 26.0569C22.5723 26.2368 22.6709 26.3993 22.8259 26.4922C22.9018 26.5381 22.9875 26.5652 23.0759 26.5714C23.1644 26.5776 23.2531 26.5626 23.3346 26.5277C23.3643 26.5156 24.0708 26.2347 24.751 26.6274C25.3478 26.9718 25.7838 27.7614 26.0285 28.9255H22.2361C21.571 28.582 18.2178 26.8107 16.133 24.9663C16.0777 24.9173 16.0133 24.8797 15.9434 24.8557C15.8736 24.8316 15.7997 24.8215 15.7259 24.8261C15.6522 24.8306 15.5801 24.8496 15.5137 24.882C15.4473 24.9144 15.3879 24.9595 15.339 25.0149C15.2901 25.0702 15.2525 25.1346 15.2284 25.2045C15.2044 25.2743 15.1943 25.3482 15.1988 25.4219C15.2033 25.4956 15.2223 25.5678 15.2547 25.6342C15.2871 25.7005 15.3322 25.7599 15.3876 25.8088C16.7364 27.0021 18.5379 28.1387 19.8968 28.9255H13.7454C13.5103 28.0902 14.2056 27.5473 14.2915 27.4842ZM31.2667 46.5003H16.7322C15.3799 46.5003 14.2481 45.5372 13.987 44.2609H34.0119C33.7509 45.5372 32.6192 46.5003 31.2668 46.5003H31.2667ZM43.2099 39.6837C41.2161 41.9744 38.3297 43.1359 34.6312 43.1359H13.3677C9.6691 43.1359 6.78282 41.9744 4.78895 39.6837C3.15564 37.8072 2.37179 35.4516 1.99895 33.4947H36.5864C36.7356 33.4947 36.8787 33.4354 36.9842 33.3299C37.0897 33.2244 37.1489 33.0813 37.1489 32.9322C37.1489 32.783 37.0897 32.6399 36.9842 32.5344C36.8787 32.4289 36.7356 32.3697 36.5864 32.3697H1.82073C1.68957 31.3437 1.66745 30.5118 1.66895 30.0505L46.3299 30.049C46.3315 30.5109 46.3092 31.3432 46.178 32.3697H40.8987C40.7495 32.3697 40.6065 32.4289 40.501 32.5344C40.3955 32.6399 40.3362 32.783 40.3362 32.9322C40.3362 33.0813 40.3955 33.2244 40.501 33.3299C40.6065 33.4354 40.7495 33.4947 40.8987 33.4947H45.9998C45.6269 35.4518 44.8432 37.8072 43.2099 39.6837ZM34.1666 25.2447C34.4758 25.2402 35.6285 25.0695 37.3014 24.1842C39.3239 23.0601 40.4936 21.3602 40.6849 19.2682L40.6852 19.2657L40.6861 19.2571C41.0737 14.9371 38.5967 12.0518 38.491 11.931C38.4889 11.9286 38.4864 11.9264 38.4842 11.9241C38.4752 11.9143 38.4658 11.9048 38.4562 11.8956C38.331 11.774 38.1596 11.7097 37.9862 11.7365C37.8103 11.7637 37.6629 11.8652 37.5806 12.0196L37.58 12.0208C37.5743 12.0315 37.5681 12.0418 37.563 12.0531C37.5226 12.1248 36.9653 13.0654 34.671 14.8026C34.3699 15.03 34.081 15.2732 33.8055 15.5311C30.4554 14.4134 26.6276 16.1476 26.4608 16.2245C26.2684 16.3122 26.137 16.5131 26.134 16.7245C26.1325 16.8007 26.1094 18.6138 27.0866 20.5734C27.9928 22.3902 29.9566 24.6755 34.1667 25.2449L34.1666 25.2447ZM30.007 16.3853L30.3603 18.2474C29.4793 17.7734 28.6009 17.2522 27.9628 16.8624C28.5026 16.689 29.2151 16.4986 30.0071 16.3854L30.007 16.3853ZM28.1135 20.1112C27.6849 19.2647 27.4714 18.4386 27.3647 17.8166C28.4648 18.4897 30.2776 19.5522 31.6617 20.1338C31.698 21.3277 32.1302 22.5753 32.9525 23.8619C30.7 23.269 29.0754 22.0116 28.1134 20.1112H28.1135ZM36.7831 23.1852C36.295 23.4593 35.81 23.6594 35.3916 23.8036C35.8024 23.0314 36.1753 22.2395 36.5088 21.4308C37.0156 21.2964 38.1024 20.9651 39.3189 20.3309C38.9177 21.5057 38.0695 22.463 36.7831 23.1852ZM39.5857 18.8845C38.6439 19.4709 37.7058 19.8582 37.0216 20.095C37.9072 17.6024 38.3067 15.3927 38.4859 13.97C39.0654 15.0633 39.7097 16.7831 39.5857 18.8845ZM35.3501 15.6995C36.2222 15.0391 36.8641 14.4816 37.336 14.0264C37.0445 16.1523 36.2614 19.929 34.1813 23.6724C33.118 22.1672 32.6571 20.7562 32.8139 19.4704C32.979 18.1175 33.8322 16.8488 35.3501 15.6995ZM32.9501 16.4584C32.3321 17.2435 31.9342 18.0758 31.7606 18.9492C31.7162 18.9291 31.672 18.9092 31.6269 18.8882L31.1337 16.2878C31.7329 16.2719 32.3495 16.3181 32.9502 16.4584H32.9501Z" fill="black"/>
<path id="Vector_2" d="M4.8002 26.8758C7.10561 26.8758 8.98127 25.0001 8.98127 22.6947C8.98127 20.3893 7.1057 18.5137 4.8002 18.5137C2.4947 18.5137 0.619141 20.3893 0.619141 22.6947C0.619141 25.0001 2.4948 26.8758 4.8002 26.8758ZM4.8002 19.6387C6.48536 19.6387 7.85627 21.0096 7.85627 22.6947C7.85627 24.3799 6.48536 25.7508 4.8002 25.7508C3.11505 25.7508 1.74414 24.3798 1.74414 22.6947C1.74414 21.0097 3.11514 19.6387 4.8002 19.6387Z" fill="black"/>
<path id="Vector_3" d="M4.7998 24.3804C5.73027 24.3804 6.4873 23.6233 6.4873 22.6929C6.4873 21.7624 5.73027 21.0054 4.7998 21.0054C3.86934 21.0054 3.1123 21.7624 3.1123 22.6929C3.1123 23.6233 3.86934 24.3804 4.7998 24.3804ZM4.7998 22.1304C5.10993 22.1304 5.3623 22.3827 5.3623 22.6929C5.3623 23.0031 5.11002 23.2554 4.7998 23.2554C4.48959 23.2554 4.2373 23.0031 4.2373 22.6929C4.2373 22.3827 4.48968 22.1304 4.7998 22.1304ZM20.6947 19.5407C21.6252 19.5407 22.3821 18.7837 22.3821 17.8532C22.3821 16.9227 21.6252 16.1657 20.6947 16.1657C19.7643 16.1657 19.0072 16.9227 19.0072 17.8532C19.0072 18.7837 19.7643 19.5407 20.6947 19.5407ZM20.6947 17.2907C21.0049 17.2907 21.2571 17.543 21.2571 17.8532C21.2571 18.1634 21.0049 18.4157 20.6947 18.4157C20.3846 18.4157 20.1322 18.1634 20.1322 17.8532C20.1322 17.543 20.3845 17.2907 20.6947 17.2907ZM44.3987 14.032C43.4682 14.032 42.7112 14.789 42.7112 15.7195C42.7112 16.6499 43.4682 17.407 44.3987 17.407C45.3291 17.407 46.0861 16.6499 46.0861 15.7195C46.0861 14.789 45.3291 14.032 44.3987 14.032ZM44.3987 16.282C44.0885 16.282 43.8362 16.0297 43.8362 15.7195C43.8362 15.4093 44.0885 15.157 44.3987 15.157C44.7089 15.157 44.9611 15.4093 44.9611 15.7195C44.9611 16.0297 44.7088 16.282 44.3987 16.282ZM43.2737 11.1824C45.5791 11.1824 47.4547 9.30688 47.4547 7.00138C47.4547 4.69588 45.5791 2.82031 43.2737 2.82031C40.9683 2.82031 39.0926 4.69588 39.0926 7.00138C39.0926 9.30688 40.9682 11.1824 43.2737 11.1824ZM43.2737 3.94541C44.9588 3.94541 46.3297 5.31631 46.3297 7.00147C46.3297 8.68663 44.9587 10.0575 43.2737 10.0575C41.5886 10.0575 40.2176 8.68663 40.2176 7.00147C40.2176 5.31631 41.5885 3.94541 43.2737 3.94541Z" fill="black"/>
<path id="Vector_4" d="M43.2739 8.68978C44.2044 8.68978 44.9614 7.93275 44.9614 7.00228C44.9614 6.07181 44.2044 5.31478 43.2739 5.31478C42.3434 5.31478 41.5864 6.07181 41.5864 7.00228C41.5864 7.93275 42.3434 8.68978 43.2739 8.68978ZM43.2739 6.43978C43.584 6.43978 43.8364 6.69206 43.8364 7.00228C43.8364 7.3125 43.5841 7.56478 43.2739 7.56478C42.9637 7.56478 42.7114 7.3125 42.7114 7.00228C42.7114 6.69206 42.9638 6.43978 43.2739 6.43978ZM11.7158 9.89682C9.83917 10.6641 9.23495 11.7899 9.05842 12.5993C8.79658 13.7999 9.31736 15.0176 9.94961 15.6919C10.7381 16.5328 11.8907 16.3013 12.6886 15.9998C12.785 17.0627 12.8991 18.6882 14.4758 18.6923C15.0188 18.6911 15.5392 18.4751 15.9235 18.0915C17.0239 16.9769 15.967 15.7573 15.2973 14.9332C16.0775 14.5894 17.0625 13.9468 17.036 12.7944C17.0147 11.8704 16.5331 10.6366 15.5051 9.96338C14.8122 9.50963 13.5925 9.12947 11.7158 9.89682ZM14.8888 10.9044C15.5713 11.3514 15.8973 12.2109 15.9113 12.8203C15.923 13.3283 15.368 13.7592 14.2145 14.1377C14.2118 14.1386 14.2092 14.1395 14.2065 14.1404C14.206 14.1404 14.2051 14.1409 14.2045 14.1411C14.0768 14.1851 13.9693 14.2739 13.9018 14.391C13.7925 14.5727 13.8026 14.8265 13.932 15.0012C14.1009 15.2468 14.2977 15.4879 14.4882 15.721C15.2884 16.7003 15.4137 17.0096 15.127 17.2973C14.9532 17.4714 14.7158 17.5683 14.4665 17.5673C14.0605 17.5629 13.9331 17.2544 13.8179 15.9952C13.7901 15.6907 13.7613 15.3758 13.708 15.0782C13.6769 14.9041 13.5647 14.7552 13.4067 14.6755C13.2488 14.5958 13.0615 14.5956 12.903 14.6739C11.8154 15.2115 11.1177 15.2929 10.7702 14.9223C10.3533 14.4776 9.98373 13.636 10.1575 12.8389C10.3307 12.0451 10.9981 11.4055 12.1415 10.9381C13.2848 10.4706 14.2091 10.4592 14.8888 10.9044ZM30.4377 7.30528L30.3793 7.38431C29.7654 8.2126 28.8374 9.46444 29.961 10.4898C30.365 10.8589 30.9119 11.0524 31.4567 11.0206C32.9753 10.9328 33.0441 9.37622 33.0896 8.34619L33.0941 8.24775C33.451 8.36372 33.8755 8.46319 34.3034 8.46319C34.8476 8.46319 35.3965 8.3026 35.8154 7.81144C36.4151 7.10822 36.878 5.86725 36.5599 4.68028C36.3455 3.88013 35.6888 2.7841 33.7782 2.1061C31.8676 1.4281 30.6669 1.86497 29.9961 2.35106C29.0009 3.072 28.578 4.32703 28.6003 5.25113C28.6282 6.40406 29.6426 6.99891 30.4377 7.30528ZM30.6561 3.26203C31.314 2.78531 32.2379 2.75316 33.402 3.16622C34.5661 3.57938 35.263 4.18669 35.4732 4.97147C35.6844 5.75953 35.3549 6.61763 34.9595 7.08131C34.6295 7.46803 33.9282 7.41947 32.8153 6.93291C32.4812 6.77681 32.0592 7.02178 32.0305 7.39003C31.9929 7.68544 31.9789 7.99594 31.9657 8.2965C31.9099 9.55978 31.7973 9.87403 31.3918 9.89747C31.2696 9.90409 31.1472 9.88642 31.0318 9.84546C30.9164 9.80451 30.8102 9.74109 30.7195 9.65888C30.4195 9.38513 30.5302 9.07022 31.2833 8.05435C31.4653 7.80872 31.6536 7.55475 31.8122 7.2975C32.0112 6.98531 31.8382 6.55256 31.4812 6.45966C30.3118 6.13603 29.7374 5.73178 29.7251 5.22385C29.7104 4.61447 29.9955 3.74072 30.6563 3.26203H30.6561ZM9.4532 7.0261C11.2107 7.03894 12.9223 6.0076 13.7156 4.42885C14.3046 3.2895 14.4145 1.98891 14.0254 0.766783C14.003 0.696398 13.9669 0.631119 13.9193 0.574671C13.8716 0.518224 13.8133 0.471714 13.7477 0.437797C13.6821 0.403881 13.6104 0.383222 13.5368 0.376999C13.4632 0.370777 13.3891 0.379113 13.3187 0.401533L5.23998 2.97441C5.1696 2.99683 5.10432 3.03289 5.04787 3.08054C4.99143 3.12818 4.94492 3.18648 4.911 3.25211C4.87708 3.31773 4.85642 3.38939 4.8502 3.46299C4.84398 3.5366 4.85232 3.61071 4.87473 3.6811C5.52452 5.72119 7.41817 7.0261 9.4532 7.0261ZM11.0037 2.31947C10.9908 2.5356 10.9327 2.74663 10.8333 2.93897C10.7399 3.12095 10.6113 3.28258 10.455 3.41452C10.2986 3.54646 10.1177 3.64609 9.92261 3.70763C9.29364 3.90806 8.63064 3.68513 8.23886 3.19997L11.0037 2.31947ZM7.1237 3.5551C7.60267 4.39247 8.49864 4.90631 9.4518 4.90631C9.72077 4.90631 9.99433 4.86544 10.264 4.77956C10.9465 4.56216 11.5037 4.09191 11.8327 3.45553C12.0737 2.98913 12.1705 2.47444 12.1198 1.96397L13.0837 1.65703C13.2051 2.42485 13.0799 3.20869 12.7164 3.91219C12.2653 4.78463 11.5016 5.42916 10.5659 5.72719C8.81627 6.28435 6.95167 5.45841 6.15845 3.8625L7.1238 3.5551H7.1237ZM44.0118 21.1209C43.919 21.0864 43.8187 21.0769 43.7211 21.0935C43.6235 21.1101 43.532 21.1522 43.4559 21.2155C42.6874 21.8544 42.3138 22.8615 42.481 23.8435C42.6481 24.8256 43.3337 25.6523 44.2703 26.0011C44.3631 26.0356 44.4633 26.045 44.5609 26.0284C44.6586 26.0118 44.75 25.9698 44.8262 25.9065C45.5948 25.2675 45.9684 24.2605 45.8012 23.2785C45.6341 22.2965 44.9485 21.4698 44.0119 21.1209H44.0118ZM44.3505 24.792C43.9516 24.5396 43.6704 24.1271 43.59 23.6548C43.5097 23.1825 43.6386 22.7003 43.9315 22.3301C44.3305 22.5825 44.6117 22.995 44.6921 23.4673C44.7725 23.9396 44.6435 24.4219 44.3505 24.792ZM20.6927 11.6805C20.8797 11.7193 21.0702 11.7388 21.2612 11.7388C22.0519 11.7388 22.8198 11.4049 23.3556 10.8055C24.0196 10.0629 24.239 9.01153 23.9282 8.06156C23.8974 7.96745 23.8423 7.88314 23.7685 7.81714C23.6947 7.75114 23.6048 7.70581 23.5078 7.68572C22.529 7.48256 21.5089 7.818 20.8449 8.56069C20.1809 9.30328 19.9615 10.3548 20.2723 11.3047C20.3031 11.3988 20.3582 11.4831 20.432 11.5491C20.5058 11.6151 20.5957 11.6604 20.6927 11.6805ZM21.6835 9.3105C22.003 8.95331 22.4605 8.75372 22.9325 8.75222C22.9836 9.22144 22.8363 9.69853 22.517 10.0556C22.1976 10.4128 21.7401 10.6124 21.268 10.6139C21.217 10.1447 21.3642 9.66769 21.6835 9.3105ZM4.81333 15.1452C4.91225 15.1493 5.01049 15.1271 5.09811 15.081C5.18573 15.0349 5.25964 14.9665 5.31236 14.8827C5.84448 14.0367 5.88686 12.9636 5.42308 12.0819C4.9592 11.2003 4.05077 10.6274 3.05214 10.5866C2.95318 10.5825 2.85488 10.6046 2.76722 10.6507C2.67956 10.6968 2.60566 10.7653 2.55302 10.8492C2.02098 11.6952 1.97861 12.7685 2.44239 13.65C2.90617 14.5316 3.8147 15.1045 4.81333 15.1452ZM3.35139 11.7608C3.80898 11.8769 4.20442 12.1816 4.42745 12.6056C4.65048 13.0297 4.67767 13.5281 4.51408 13.9709C4.05658 13.8549 3.66114 13.5502 3.43802 13.1262C3.21489 12.7022 3.1878 12.2037 3.3513 11.7609L3.35139 11.7608ZM44.9184 43.1999C44.8126 43.0958 44.67 43.0378 44.5216 43.0384C44.3732 43.039 44.231 43.0982 44.1261 43.2031C44.0212 43.3081 43.962 43.4502 43.9614 43.5986C43.9608 43.747 44.0188 43.8896 44.1229 43.9954L44.7876 44.6601C44.8974 44.7698 45.0414 44.8248 45.1854 44.8248C45.3294 44.8248 45.4733 44.7698 45.5831 44.6601C45.6886 44.5546 45.7479 44.4115 45.7479 44.2623C45.7479 44.1132 45.6886 43.9701 45.5831 43.8646L44.9185 43.1999H44.9184ZM46.2629 41.0983H45.323C45.1738 41.0983 45.0307 41.1576 44.9252 41.2631C44.8198 41.3686 44.7605 41.5116 44.7605 41.6608C44.7605 41.81 44.8198 41.9531 44.9252 42.0586C45.0307 42.1641 45.1738 42.2233 45.323 42.2233H46.2629C46.4121 42.2233 46.5552 42.1641 46.6607 42.0586C46.7662 41.9531 46.8254 41.81 46.8254 41.6608C46.8254 41.5116 46.7662 41.3686 46.6607 41.2631C46.5552 41.1576 46.4121 41.0983 46.2629 41.0983ZM42.5349 43.8863C42.3857 43.8863 42.2426 43.9456 42.1371 44.0511C42.0316 44.1566 41.9724 44.2997 41.9724 44.4488V45.3889C41.9724 45.5381 42.0316 45.6811 42.1371 45.7866C42.2426 45.8921 42.3857 45.9514 42.5349 45.9514C42.684 45.9514 42.8271 45.8921 42.9326 45.7866C43.0381 45.6811 43.0974 45.5381 43.0974 45.3889V44.4488C43.0974 44.2997 43.0381 44.1566 42.9326 44.0511C42.8271 43.9456 42.684 43.8863 42.5349 43.8863Z" fill="black"/>
<path id="Vector_5" d="M38.7422 33.4941C39.0528 33.4941 39.3047 33.2423 39.3047 32.9316C39.3047 32.621 39.0528 32.3691 38.7422 32.3691C38.4315 32.3691 38.1797 32.621 38.1797 32.9316C38.1797 33.2423 38.4315 33.4941 38.7422 33.4941Z" fill="black"/>
</g>
</g>
<defs>
<clipPath id="clip0_26461_5479">
<rect width="48" height="48" fill="white"/>
</clipPath>
</defs>
</svg>
